<svg width="20" height="20" viewBox="0 0 20 20" fill="none" xmlns="http://www.w3.org/2000/svg">
<path fill-rule="evenodd" clip-rule="evenodd" d="M10 0C4.47715 0 0 4.47715 0 10C0 15.5228 4.47715 20 10 20C15.5228 20 20 15.5228 20 10C19.9942 4.47957 15.5204 0.00582964 10 0ZM16.9106 5.12212L10.7692 8.66731V1.57404C13.2372 1.8003 15.4818 3.09713 16.9106 5.12212ZM9.23077 1.57404V9.55481L2.31827 13.5452C1.16675 11.0493 1.29934 8.14958 2.67385 5.7692C4.04835 3.38881 6.49347 1.82441 9.23077 1.57404ZM10 18.4615C7.25112 18.4604 4.67409 17.124 3.08942 14.8779L17.6817 6.45385C18.891 9.07371 18.6819 12.1292 17.1269 14.5599C15.5719 16.9905 12.8855 18.4612 10 18.4615Z" fill="#1C170D"/>
</svg>
