<svg width="21" height="21" viewBox="0 0 21 21" fill="none" xmlns="http://www.w3.org/2000/svg">
<path fill-rule="evenodd" clip-rule="evenodd" d="M20.2524 5.02444C20.733 3.47401 20.5433 1.79323 19.7293 0.388889C19.5903 0.14819 19.3335 -6.23067e-05 19.0556 0C17.2186 -0.00384521 15.488 0.861434 14.3889 2.33333H12.0556C10.9564 0.861434 9.22588 -0.00384521 7.38889 0C7.11095 -6.23067e-05 6.85411 0.14819 6.71514 0.388889C5.9011 1.79323 5.71145 3.47401 6.19208 5.02444C5.71154 5.8632 5.45413 6.81117 5.44444 7.77778V8.55556C5.44783 11.2768 7.4579 13.5786 10.1539 13.9485C9.6217 14.6295 9.33283 15.469 9.33333 16.3333V17.1111H7C5.71134 17.1111 4.66667 16.0664 4.66667 14.7778C4.66667 12.63 2.92555 10.8889 0.777778 10.8889C0.348223 10.8889 0 11.2371 0 11.6667C0 12.0962 0.348223 12.4444 0.777778 12.4444C2.06644 12.4444 3.11111 13.4891 3.11111 14.7778C3.11111 16.9256 4.85223 18.6667 7 18.6667H9.33333V20.2222C9.33333 20.6518 9.68156 21 10.1111 21C10.5407 21 10.8889 20.6518 10.8889 20.2222V16.3333C10.8889 15.0447 11.9336 14 13.2222 14C14.5109 14 15.5556 15.0447 15.5556 16.3333V20.2222C15.5556 20.6518 15.9038 21 16.3333 21C16.7629 21 17.1111 20.6518 17.1111 20.2222V16.3333C17.1116 15.469 16.8227 14.6295 16.2906 13.9485C18.9865 13.5786 20.9966 11.2768 21 8.55556V7.77778C20.9903 6.81117 20.7329 5.8632 20.2524 5.02444ZM19.4444 8.55556C19.4444 10.7033 17.7033 12.4444 15.5556 12.4444H10.8889C8.74111 12.4444 7 10.7033 7 8.55556V7.77778C7.00954 7.00002 7.24239 6.2414 7.67083 5.59222C7.83321 5.3782 7.87364 5.09554 7.77778 4.84458C7.36861 3.78936 7.39625 2.61468 7.85458 1.57986C9.14397 1.71857 10.3003 2.43624 10.9968 3.53014C11.1392 3.75279 11.3849 3.88791 11.6492 3.88889H14.7943C15.0596 3.8889 15.3066 3.75366 15.4496 3.53014C16.146 2.43614 17.3024 1.71843 18.5918 1.57986C19.0495 2.61494 19.0764 3.78962 18.6667 4.84458C18.5712 5.09298 18.6077 5.37283 18.7639 5.58833C19.1966 6.23751 19.4329 6.9977 19.4444 7.77778V8.55556Z" fill="#A1824A"/>
</svg>
