<svg width="24" height="16" viewBox="0 0 24 16" fill="none" xmlns="http://www.w3.org/2000/svg">
<path fill-rule="evenodd" clip-rule="evenodd" d="M10.9776 10.4875C13.0775 9.08951 14.0144 6.48141 13.2841 4.06668C12.5539 1.65195 10.3287 0.000162046 7.80591 0.000162046C5.28317 0.000162046 3.05795 1.65195 2.32768 4.06668C1.5974 6.48141 2.53432 9.08951 4.63426 10.4875C2.78421 11.1694 1.20421 12.4312 0.130046 14.0846C-0.0235985 14.313 -0.0423685 14.6064 0.0809245 14.8524C0.204217 15.0985 0.450467 15.2591 0.725361 15.2728C1.00026 15.2864 1.2612 15.151 1.40824 14.9183C2.81599 12.7531 5.22333 11.4469 7.80591 11.4469C10.3885 11.4469 12.7958 12.7531 14.2036 14.9183C14.4365 15.2644 14.9042 15.3594 15.2536 15.1315C15.603 14.9036 15.7047 14.4373 15.4818 14.0846C14.4076 12.4312 12.8276 11.1694 10.9776 10.4875ZM3.60884 5.72576C3.60884 3.40778 5.48794 1.52869 7.80591 1.52869C10.1239 1.52869 12.003 3.40778 12.003 5.72576C12.003 8.04374 10.1239 9.92283 7.80591 9.92283C5.48902 9.9202 3.61147 8.04265 3.60884 5.72576ZM23.6537 15.1405C23.3007 15.3707 22.828 15.2712 22.5977 14.9183C21.1916 12.7517 18.783 11.4456 16.2 11.449C15.7786 11.449 15.4369 11.1074 15.4369 10.6859C15.4369 10.2645 15.7786 9.92283 16.2 9.92283C17.8904 9.92123 19.4148 8.90578 20.0676 7.34657C20.7203 5.78736 20.374 3.98873 19.189 2.78335C18.004 1.57797 16.2115 1.20112 14.6414 1.82726C14.3866 1.93742 14.092 1.90049 13.8722 1.73081C13.6525 1.56113 13.5422 1.28548 13.5843 1.01105C13.6264 0.736625 13.8143 0.506724 14.0748 0.410744C16.7962 -0.674575 19.8977 0.470528 21.261 3.06388C22.6242 5.65723 21.8087 8.8613 19.3717 10.4875C21.2218 11.1694 22.8017 12.4312 23.8759 14.0846C24.1061 14.4376 24.0066 14.9103 23.6537 15.1405Z" fill="#1C170D"/>
</svg>
